# xmcd
#
# Track frame offsets:
#	150
#	16589
#	38433
#	50552
#	70841
#	87865
#	101851
#	115915
#	126757
#	133056
#	142551
#	167408
#	174294
#	185134
#
# Disc length: 2672 seconds
#
# Revision: 1
# Processed by: cddbd v1.5.1PL0 Copyright (c) Steve Scherf et al.
# Submitted via: audiograbber 1.83.01
#
DISCID=af0a6e0e
DTITLE=Fleetwood Mac - Then Play On
DYEAR=1900
DGENRE=Blues
TTITLE0=Coming Your Way
TTITLE1=Closing My Eyes
TTITLE2=Fighting For Madge
TTITLE3=When You Say
TTITLE4=Show-Biz Blues
TTITLE5=Underway
TTITLE6=One Sunny Day
TTITLE7=Although The Sun Is Shining
TTITLE8=Rattlesnake Shake
TTITLE9=Without You
TTITLE10=Searching For Madge
TTITLE11=My Dream
TTITLE12=Like Crying
TTITLE13=Before The Beginning
EXTD=
EXTT0=
EXTT1=
EXTT2=
EXTT3=
EXTT4=
EXTT5=
EXTT6=
EXTT7=
EXTT8=
EXTT9=
EXTT10=
EXTT11=
EXTT12=
EXTT13=
PLAYORDER=
